<svg xmlns="http://www.w3.org/2000/svg" viewBox="0 0 500 500"><g id="freepik--background-simple--inject-62"><path d="M437,428a58.28,58.28,0,0,0,13.79-11.5c29.3-33.9,29-81.73,27-122.94-2.38-48.65-11.38-97.32-37.41-140.23C415.3,112,377.5,76.83,330.19,58A215.65,215.65,0,0,0,289.58,46.4a170.44,170.44,0,0,0-77.5,3.47,239.53,239.53,0,0,0-28,10.08C121.82,86.49,113.17,141.2,89,195.9c-17.13,38.72-57.43,64-74.52,102.8C-4.69,342.13,26,389.58,65.12,412.89a158.86,158.86,0,0,0,28.5,13.23c93,32.72,197.91,42.75,294.73,18.94C404.64,441.05,422.69,436.8,437,428Z" style="fill:#FEE8F2"></path><path d="M437,428a58.28,58.28,0,0,0,13.79-11.5c29.3-33.9,29-81.73,27-122.94-2.38-48.65-11.38-97.32-37.41-140.23C415.3,112,377.5,76.83,330.19,58A215.65,215.65,0,0,0,289.58,46.4a170.44,170.44,0,0,0-77.5,3.47,239.53,239.53,0,0,0-28,10.08C121.82,86.49,113.17,141.2,89,195.9c-17.13,38.72-57.43,64-74.52,102.8C-4.69,342.13,26,389.58,65.12,412.89a158.86,158.86,0,0,0,28.5,13.23c93,32.72,197.91,42.75,294.73,18.94C404.64,441.05,422.69,436.8,437,428Z" style="fill:#fff;opacity:0.7000000000000001"></path></g><g id="freepik--Plant--inject-62"><line x1="37.27" y1="280.29" x2="51.19" y2="413.72" style="fill:none;stroke:#263238;stroke-miterlimit:10;stroke-width:2px"></line><line x1="48.95" y1="388.18" x2="42.63" y2="381.52" style="fill:none;stroke:#263238;stroke-miterlimit:10;stroke-width:2px"></line><path d="M44.55,383.51A7.15,7.15,0,0,0,42,378.16c-1.62-1.45-10.15-5-11-2C30.2,379.4,38.93,385.81,44.55,383.51Z" style="fill:#FEE8F2;stroke:#263238;stroke-miterlimit:10"></path><line x1="44.55" y1="383.51" x2="36.43" y2="378.46" style="fill:none;stroke:#263238;stroke-miterlimit:10;stroke-width:0.5px"></line><line x1="50.53" y1="403.36" x2="44.22" y2="396.69" style="fill:none;stroke:#263238;stroke-miterlimit:10;stroke-width:2px"></line><path d="M46.13,398.69a7.12,7.12,0,0,0-2.51-5.36c-1.62-1.44-10.15-5-10.95-2C31.79,394.57,40.51,401,46.13,398.69Z" style="fill:#FEE8F2;stroke:#263238;stroke-miterlimit:10"></path><line x1="46.13" y1="398.69" x2="38.02" y2="393.63" style="fill:none;stroke:#263238;stroke-miterlimit:10;stroke-width:0.5px"></line><line x1="45.08" y1="351.16" x2="38.77" y2="344.49" style="fill:none;stroke:#263238;stroke-miterlimit:10;stroke-width:2px"></line><path d="M40.69,346.49a7.16,7.16,0,0,0-2.52-5.36c-1.62-1.44-10.14-5-11-2C26.34,342.37,35.07,348.78,40.69,346.49Z" style="fill:#FEE8F2;stroke:#263238;stroke-miterlimit:10"></path><line x1="40.69" y1="346.49" x2="32.57" y2="341.43" style="fill:none;stroke:#263238;stroke-miterlimit:10;stroke-width:0.5px"></line><line x1="46.67" y1="366.33" x2="40.35" y2="359.66" style="fill:none;stroke:#263238;stroke-miterlimit:10;stroke-width:2px"></line><path d="M42.27,361.66a7.14,7.14,0,0,0-2.51-5.35c-1.62-1.45-10.15-5-11-2C27.92,357.54,36.65,364,42.27,361.66Z" style="fill:#FEE8F2;stroke:#263238;stroke-miterlimit:10"></path><line x1="42.27" y1="361.66" x2="34.15" y2="356.6" style="fill:none;stroke:#263238;stroke-miterlimit:10;stroke-width:0.5px"></line><line x1="42.51" y1="326.51" x2="36.2" y2="319.84" style="fill:none;stroke:#263238;stroke-miterlimit:10;stroke-width:2px"></line><path d="M38.11,321.84a7.12,7.12,0,0,0-2.51-5.36c-1.62-1.44-10.15-5-11-2C23.77,317.72,32.49,324.13,38.11,321.84Z" style="fill:#FEE8F2;stroke:#263238;stroke-miterlimit:10"></path><line x1="38.11" y1="321.84" x2="30" y2="316.78" style="fill:none;stroke:#263238;stroke-miterlimit:10;stroke-width:0.5px"></line><line x1="39.93" y1="301.75" x2="33.61" y2="295.08" style="fill:none;stroke:#263238;stroke-miterlimit:10;stroke-width:2px"></line><path d="M35.53,297.08A7.14,7.14,0,0,0,33,291.73c-1.62-1.45-10.15-5-11-2C21.18,293,29.91,299.38,35.53,297.08Z" style="fill:#FEE8F2;stroke:#263238;stroke-miterlimit:10"></path><line x1="35.53" y1="297.08" x2="27.41" y2="292.02" style="fill:none;stroke:#263238;stroke-miterlimit:10;stroke-width:0.5px"></line><line x1="47.88" y1="379.21" x2="52.68" y2="371.38" style="fill:none;stroke:#263238;stroke-miterlimit:10;stroke-width:2px"></line><path d="M51.22,373.73A7.14,7.14,0,0,1,52.57,368c1.29-1.75,8.89-7,10.3-4.25C64.41,366.74,57.19,374.82,51.22,373.73Z" style="fill:#FEE8F2;stroke:#263238;stroke-miterlimit:10"></path><line x1="51.22" y1="373.73" x2="58.53" y2="366.74" style="fill:none;stroke:#263238;stroke-miterlimit:10;stroke-width:0.5px"></line><line x1="43.72" y1="339.28" x2="48.52" y2="331.45" style="fill:none;stroke:#263238;stroke-miterlimit:10;stroke-width:2px"></line><path d="M47.05,333.8A7.17,7.17,0,0,1,48.41,328c1.28-1.75,8.89-7,10.3-4.25C60.24,326.81,53,334.88,47.05,333.8Z" style="fill:#FEE8F2;stroke:#263238;stroke-miterlimit:10"></path><line x1="47.05" y1="333.8" x2="54.36" y2="326.81" style="fill:none;stroke:#263238;stroke-miterlimit:10;stroke-width:0.5px"></line><line x1="41.89" y1="321.73" x2="46.69" y2="313.9" style="fill:none;stroke:#263238;stroke-miterlimit:10;stroke-width:2px"></line><path d="M45.22,316.25a7.18,7.18,0,0,1,1.35-5.76c1.29-1.75,8.89-7,10.31-4.25C58.41,309.26,51.2,317.34,45.22,316.25Z" style="fill:#FEE8F2;stroke:#263238;stroke-miterlimit:10"></path><line x1="45.22" y1="316.25" x2="52.53" y2="309.26" style="fill:none;stroke:#263238;stroke-miterlimit:10;stroke-width:0.5px"></line><line x1="39.2" y1="296" x2="44" y2="288.17" style="fill:none;stroke:#263238;stroke-miterlimit:10;stroke-width:2px"></line><path d="M42.54,290.53a7.14,7.14,0,0,1,1.35-5.76c1.29-1.75,8.89-7,10.3-4.25C55.73,283.53,48.51,291.61,42.54,290.53Z" style="fill:#FEE8F2;stroke:#263238;stroke-miterlimit:10"></path><line x1="42.54" y1="290.53" x2="49.85" y2="283.54" style="fill:none;stroke:#263238;stroke-miterlimit:10;stroke-width:0.5px"></line><path d="M37.15,279.55a7.12,7.12,0,0,1,1.35-5.75c1.29-1.75,8.89-7,10.3-4.25C50.34,272.56,43.12,280.64,37.15,279.55Z" style="fill:#FEE8F2;stroke:#263238;stroke-miterlimit:10"></path><line x1="37.15" y1="279.55" x2="44.46" y2="272.57" style="fill:none;stroke:#263238;stroke-miterlimit:10;stroke-width:0.5px"></line><path d="M37.57,279.86A7.15,7.15,0,0,1,32,277.91c-1.61-1.47-6-9.58-3.15-10.69C32,266,39.28,274,37.57,279.86Z" style="fill:#FEE8F2;stroke:#263238;stroke-miterlimit:10"></path><line x1="37.57" y1="279.86" x2="31.39" y2="271.85" style="fill:none;stroke:#263238;stroke-miterlimit:10;stroke-width:0.5px"></line><line x1="73.99" y1="298.67" x2="60.15" y2="432.1" style="fill:none;stroke:#263238;stroke-miterlimit:10;stroke-width:2px"></line><line x1="63.21" y1="406.65" x2="58.4" y2="398.83" style="fill:none;stroke:#263238;stroke-miterlimit:10;stroke-width:2px"></line><path d="M59.87,401.18a7.17,7.17,0,0,0-1.36-5.76c-1.29-1.75-8.89-7-10.3-4.24C46.67,394.19,53.89,402.27,59.87,401.18Z" style="fill:#FEE8F2;stroke:#263238;stroke-miterlimit:10"></path><line x1="59.87" y1="401.18" x2="52.97" y2="394.56" style="fill:none;stroke:#263238;stroke-miterlimit:10;stroke-width:0.5px"></line><line x1="67.05" y1="369.62" x2="62.24" y2="361.8" style="fill:none;stroke:#263238;stroke-miterlimit:10;stroke-width:2px"></line><path d="M63.71,364.15a7.17,7.17,0,0,0-1.36-5.76c-1.28-1.75-8.89-7-10.3-4.24C50.52,357.16,57.74,365.24,63.71,364.15Z" style="fill:#FEE8F2;stroke:#263238;stroke-miterlimit:10"></path><line x1="63.71" y1="364.15" x2="56.81" y2="357.53" style="fill:none;stroke:#263238;stroke-miterlimit:10;stroke-width:0.5px"></line><line x1="65.47" y1="384.8" x2="60.67" y2="376.97" style="fill:none;stroke:#263238;stroke-miterlimit:10;stroke-width:2px"></line><path d="M62.14,379.32a7.14,7.14,0,0,0-1.36-5.75c-1.29-1.75-8.89-7-10.3-4.25C48.94,372.34,56.16,380.41,62.14,379.32Z" style="fill:#FEE8F2;stroke:#263238;stroke-miterlimit:10"></path><line x1="62.14" y1="379.32" x2="55.23" y2="372.7" style="fill:none;stroke:#263238;stroke-miterlimit:10;stroke-width:0.5px"></line><line x1="69.61" y1="344.97" x2="64.8" y2="337.15" style="fill:none;stroke:#263238;stroke-miterlimit:10;stroke-width:2px"></line><path d="M66.27,339.5a7.17,7.17,0,0,0-1.36-5.76c-1.29-1.75-8.89-7-10.3-4.24C53.07,332.51,60.29,340.59,66.27,339.5Z" style="fill:#FEE8F2;stroke:#263238;stroke-miterlimit:10"></path><line x1="66.27" y1="339.5" x2="59.37" y2="332.88" style="fill:none;stroke:#263238;stroke-miterlimit:10;stroke-width:0.5px"></line><line x1="72.18" y1="320.21" x2="67.37" y2="312.39" style="fill:none;stroke:#263238;stroke-miterlimit:10;stroke-width:2px"></line><path d="M68.84,314.74A7.17,7.17,0,0,0,67.48,309c-1.29-1.75-8.89-7-10.3-4.24C55.64,307.75,62.86,315.83,68.84,314.74Z" style="fill:#FEE8F2;stroke:#263238;stroke-miterlimit:10"></path><line x1="68.84" y1="314.74" x2="61.94" y2="308.12" style="fill:none;stroke:#263238;stroke-miterlimit:10;stroke-width:0.5px"></line><line x1="64.02" y1="397.65" x2="70.33" y2="390.98" style="fill:none;stroke:#263238;stroke-miterlimit:10;stroke-width:2px"></line><path d="M68.41,393a7.17,7.17,0,0,1,2.51-5.36c1.62-1.45,10.14-5,11-2C82.76,388.85,74,395.27,68.41,393Z" style="fill:#FEE8F2;stroke:#263238;stroke-miterlimit:10"></path><line x1="68.41" y1="392.98" x2="77" y2="387.64" style="fill:none;stroke:#263238;stroke-miterlimit:10;stroke-width:0.5px"></line><line x1="68.16" y1="357.71" x2="74.47" y2="351.04" style="fill:none;stroke:#263238;stroke-miterlimit:10;stroke-width:2px"></line><path d="M72.55,353a7.14,7.14,0,0,1,2.51-5.35c1.62-1.45,10.15-5,11-2C86.9,348.91,78.18,355.33,72.55,353Z" style="fill:#FEE8F2;stroke:#263238;stroke-miterlimit:10"></path><line x1="72.55" y1="353.04" x2="81.14" y2="347.71" style="fill:none;stroke:#263238;stroke-miterlimit:10;stroke-width:0.5px"></line><line x1="69.98" y1="340.17" x2="76.29" y2="333.49" style="fill:none;stroke:#263238;stroke-miterlimit:10;stroke-width:2px"></line><path d="M74.37,335.49a7.14,7.14,0,0,1,2.51-5.35c1.62-1.45,10.15-5,11-2C88.72,331.37,80,337.79,74.37,335.49Z" style="fill:#FEE8F2;stroke:#263238;stroke-miterlimit:10"></path><line x1="74.37" y1="335.49" x2="82.97" y2="330.16" style="fill:none;stroke:#263238;stroke-miterlimit:10;stroke-width:0.5px"></line><line x1="72.65" y1="314.44" x2="78.96" y2="307.77" style="fill:none;stroke:#263238;stroke-miterlimit:10;stroke-width:2px"></line><path d="M77,309.77a7.17,7.17,0,0,1,2.51-5.36c1.62-1.45,10.15-5,11-2C91.39,305.64,82.67,312.06,77,309.77Z" style="fill:#FEE8F2;stroke:#263238;stroke-miterlimit:10"></path><line x1="77.04" y1="309.77" x2="85.64" y2="304.43" style="fill:none;stroke:#263238;stroke-miterlimit:10;stroke-width:0.5px"></line><path d="M74,297.92a7.17,7.17,0,0,1,2.51-5.36c1.62-1.44,10.14-5,10.95-2C88.38,293.79,79.65,300.21,74,297.92Z" style="fill:#FEE8F2;stroke:#263238;stroke-miterlimit:10"></path><line x1="74.03" y1="297.92" x2="82.62" y2="292.59" style="fill:none;stroke:#263238;stroke-miterlimit:10;stroke-width:0.5px"></line><path d="M74.38,298.3a7.16,7.16,0,0,1-5.06-3.05c-1.27-1.77-3.95-10.62-.88-11.11C71.78,283.6,77.25,293,74.38,298.3Z" style="fill:#FEE8F2;stroke:#263238;stroke-miterlimit:10"></path><line x1="74.38" y1="298.3" x2="69.98" y2="289.2" style="fill:none;stroke:#263238;stroke-miterlimit:10;stroke-width:0.5px"></line><line x1="58.12" y1="244.34" x2="58.12" y2="413.07" style="fill:none;stroke:#263238;stroke-miterlimit:10;stroke-width:2px"></line><line x1="58.26" y1="387.7" x2="52.67" y2="380.41" style="fill:none;stroke:#263238;stroke-miterlimit:10;stroke-width:2px"></line><path d="M54.37,382.6A7.14,7.14,0,0,0,52.43,377C51,375.4,42.86,371,41.74,373.85,40.53,377,48.54,384.3,54.37,382.6Z" style="fill:#FEE8F2;stroke:#263238;stroke-miterlimit:10"></path><line x1="54.37" y1="382.6" x2="46.82" y2="376.72" style="fill:none;stroke:#263238;stroke-miterlimit:10;stroke-width:0.5px"></line><line x1="58.26" y1="355.99" x2="52.67" y2="348.7" style="fill:none;stroke:#263238;stroke-miterlimit:10;stroke-width:2px"></line><path d="M54.37,350.89a7.14,7.14,0,0,0-1.94-5.59c-1.46-1.61-9.57-6.06-10.69-3.16C40.53,345.3,48.54,352.59,54.37,350.89Z" style="fill:#FEE8F2;stroke:#263238;stroke-miterlimit:10"></path><line x1="54.37" y1="350.89" x2="46.82" y2="345.01" style="fill:none;stroke:#263238;stroke-miterlimit:10;stroke-width:0.5px"></line><line x1="58.26" y1="318.76" x2="52.67" y2="311.47" style="fill:none;stroke:#263238;stroke-miterlimit:10;stroke-width:2px"></line><path d="M54.37,313.66a7.14,7.14,0,0,0-1.94-5.59c-1.46-1.6-9.57-6.06-10.69-3.15C40.53,308.07,48.54,315.36,54.37,313.66Z" style="fill:#FEE8F2;stroke:#263238;stroke-miterlimit:10"></path><line x1="54.37" y1="313.66" x2="46.82" y2="307.79" style="fill:none;stroke:#263238;stroke-miterlimit:10;stroke-width:0.5px"></line><line x1="58.26" y1="293.98" x2="52.67" y2="286.69" style="fill:none;stroke:#263238;stroke-miterlimit:10;stroke-width:2px"></line><path d="M54.37,288.88a7.14,7.14,0,0,0-1.94-5.59c-1.46-1.61-9.57-6.06-10.69-3.16C40.53,283.29,48.54,290.58,54.37,288.88Z" style="fill:#FEE8F2;stroke:#263238;stroke-miterlimit:10"></path><line x1="54.37" y1="288.88" x2="46.82" y2="283" style="fill:none;stroke:#263238;stroke-miterlimit:10;stroke-width:0.5px"></line><line x1="58.26" y1="269.09" x2="52.67" y2="261.8" style="fill:none;stroke:#263238;stroke-miterlimit:10;stroke-width:2px"></line><path d="M54.37,264a7.14,7.14,0,0,0-1.94-5.59c-1.46-1.61-9.57-6.06-10.69-3.16C40.53,258.4,48.54,265.69,54.37,264Z" style="fill:#FEE8F2;stroke:#263238;stroke-miterlimit:10"></path><line x1="54.37" y1="263.99" x2="46.82" y2="258.11" style="fill:none;stroke:#263238;stroke-miterlimit:10;stroke-width:0.5px"></line><line x1="58.14" y1="397.38" x2="63.72" y2="390.09" style="fill:none;stroke:#263238;stroke-miterlimit:10;stroke-width:2px"></line><path d="M62,392.28A7.18,7.18,0,0,1,64,386.69c1.46-1.6,9.57-6.06,10.68-3.15C75.87,386.69,67.85,394,62,392.28Z" style="fill:#FEE8F2;stroke:#263238;stroke-miterlimit:10"></path><line x1="62.02" y1="392.28" x2="70.02" y2="386.09" style="fill:none;stroke:#263238;stroke-miterlimit:10;stroke-width:0.5px"></line><line x1="58.14" y1="346.95" x2="63.72" y2="339.66" style="fill:none;stroke:#263238;stroke-miterlimit:10;stroke-width:2px"></line><path d="M62,341.85A7.17,7.17,0,0,1,64,336.26c1.46-1.61,9.57-6.06,10.68-3.16C75.87,336.26,67.85,343.55,62,341.85Z" style="fill:#FEE8F2;stroke:#263238;stroke-miterlimit:10"></path><line x1="62.02" y1="341.85" x2="70.02" y2="335.66" style="fill:none;stroke:#263238;stroke-miterlimit:10;stroke-width:0.5px"></line><line x1="58.14" y1="322.06" x2="63.72" y2="314.77" style="fill:none;stroke:#263238;stroke-miterlimit:10;stroke-width:2px"></line><path d="M62,317A7.17,7.17,0,0,1,64,311.37c1.46-1.61,9.57-6.06,10.68-3.16C75.87,311.37,67.85,318.66,62,317Z" style="fill:#FEE8F2;stroke:#263238;stroke-miterlimit:10"></path><line x1="62.02" y1="316.96" x2="70.02" y2="310.77" style="fill:none;stroke:#263238;stroke-miterlimit:10;stroke-width:0.5px"></line><line x1="58.14" y1="289.16" x2="63.72" y2="281.87" style="fill:none;stroke:#263238;stroke-miterlimit:10;stroke-width:2px"></line><path d="M62,284.06A7.17,7.17,0,0,1,64,278.47c1.46-1.61,9.57-6.06,10.68-3.16C75.87,278.47,67.85,285.76,62,284.06Z" style="fill:#FEE8F2;stroke:#263238;stroke-miterlimit:10"></path><line x1="62.02" y1="284.06" x2="70.02" y2="277.87" style="fill:none;stroke:#263238;stroke-miterlimit:10;stroke-width:0.5px"></line><line x1="58.14" y1="263.29" x2="63.72" y2="256.01" style="fill:none;stroke:#263238;stroke-miterlimit:10;stroke-width:2px"></line><path d="M62,258.19A7.15,7.15,0,0,1,64,252.61c1.46-1.61,9.57-6.06,10.68-3.16C75.87,252.61,67.85,259.89,62,258.19Z" style="fill:#FEE8F2;stroke:#263238;stroke-miterlimit:10"></path><line x1="62.02" y1="258.19" x2="70.02" y2="252" style="fill:none;stroke:#263238;stroke-miterlimit:10;stroke-width:0.5px"></line><path d="M57.8,246.72a7.19,7.19,0,0,1,1.94-5.59c1.47-1.6,9.57-6.06,10.69-3.15C71.65,241.13,63.63,248.42,57.8,246.72Z" style="fill:#FEE8F2;stroke:#263238;stroke-miterlimit:10"></path><line x1="57.8" y1="246.72" x2="65.8" y2="240.53" style="fill:none;stroke:#263238;stroke-miterlimit:10;stroke-width:0.5px"></line><path d="M58.19,247.06a7.14,7.14,0,0,1-5.35-2.51c-1.45-1.63-5-10.16-2-11C54.09,232.71,60.49,241.45,58.19,247.06Z" style="fill:#FEE8F2;stroke:#263238;stroke-miterlimit:10"></path><line x1="58.19" y1="247.06" x2="52.87" y2="238.46" style="fill:none;stroke:#263238;stroke-miterlimit:10;stroke-width:0.5px"></line><polygon points="65.07 456.83 47.2 456.83 44.96 411.7 67.3 411.7 65.07 456.83" style="fill:#263238;stroke:#263238;stroke-miterlimit:10"></polygon></g><g id="freepik--Pictures--inject-62"><g style="opacity:0.30000000000000004"><rect x="119.86" y="85.46" width="82.62" height="119.14" style="fill:none;stroke:#000;stroke-miterlimit:10"></rect><path d="M202.49,106.23v98.38H119.86V202a82.6,82.6,0,0,0,26.3-14.18c17.15-13.92,13.4-23.57,24.11-51.42C178.64,114.6,193.55,107.88,202.49,106.23Z" style="fill:none;stroke:#000;stroke-miterlimit:10"></path><path d="M154.58,85.46c-.31,13.13-5,39.7-34.72,59.49V85.46Z" style="fill:none;stroke:#000;stroke-miterlimit:10"></path><path d="M194.06,85.46C189.37,95.48,181,108,168.13,108c-13.3,0-9.67-12.79-5-22.51Z" style="fill:none;stroke:#000;stroke-miterlimit:10"></path><circle cx="135.45" cy="160.47" r="11.79" transform="translate(-52.88 253.36) rotate(-76.09)" style="fill:none;stroke:#000;stroke-miterlimit:10"></circle><path d="M193.31,148.15a5.36,5.36,0,1,1-5.36-5.36A5.36,5.36,0,0,1,193.31,148.15Z" style="fill:none;stroke:#000;stroke-miterlimit:10"></path><circle cx="179.65" cy="186.45" r="5.09" style="fill:none;stroke:#000;stroke-miterlimit:10"></circle><rect x="224.86" y="85.46" width="82.63" height="119.14" style="fill:none;stroke:#000;stroke-miterlimit:10"></rect><path d="M307.5,85.46v97.66c-18.17-9.4-47.87-38.58-59.55-65.51-7.44-17.18-15.35-26.86-21.09-32.15Z" style="fill:none;stroke:#000;stroke-miterlimit:10"></path><path d="M307.5,195.73v8.88H224.86v-3.4c15.75-10.47,40.08-23.9,56.31-19.85C291.62,184,300.56,189.77,307.5,195.73Z" style="fill:none;stroke:#000;stroke-miterlimit:10"></path><path d="M246.89,158.33c-2.77,10.71-14.24,17.64-22,21.2V117.42C235.15,128.85,249.7,147.41,246.89,158.33Z" style="fill:none;stroke:#000;stroke-miterlimit:10"></path><path d="M272.21,85.46H307.5V113C289.47,109.21,277.35,93.51,272.21,85.46Z" style="fill:none;stroke:#000;stroke-miterlimit:10"></path><ellipse cx="277.42" cy="126.99" rx="12.32" ry="15.27" transform="translate(-24.4 171.63) rotate(-33.01)" style="fill:none;stroke:#000;stroke-miterlimit:10"></ellipse><rect x="329.87" y="85.46" width="82.62" height="119.14" style="fill:none;stroke:#000;stroke-miterlimit:10"></rect><path d="M412.49,145.35v59.26H329.87V197.8c4.65-6.47,14.68-14.08,35.95-19.65C384.13,173.35,400.06,159.78,412.49,145.35Z" style="fill:none;stroke:#000;stroke-miterlimit:10"></path><path d="M368,152.44c-16.53,11.22-29.65,21.46-38.09,28.39V117.34c14.2-11.22,38.81-32.71,53.63-26C401.17,99.4,398,132.07,368,152.44Z" style="fill:none;stroke:#000;stroke-miterlimit:10"></path><path d="M412.49,85.46v18.73c-6.37-3.6-10.92-11.44-14-18.73Z" style="fill:none;stroke:#000;stroke-miterlimit:10"></path><circle cx="372.25" cy="112.26" r="7.5" style="fill:none;stroke:#000;stroke-miterlimit:10"></circle><circle cx="402.25" cy="186.72" r="7.5" style="fill:none;stroke:#000;stroke-miterlimit:10"></circle><path d="M391.53,154.58a5.36,5.36,0,1,1-5.36-5.36A5.36,5.36,0,0,1,391.53,154.58Z" style="fill:none;stroke:#000;stroke-miterlimit:10"></path><circle cx="344.65" cy="149.49" r="4.02" style="fill:none;stroke:#000;stroke-miterlimit:10"></circle></g></g><g id="freepik--Sofa--inject-62"><rect x="210.96" y="291.08" width="106.77" height="101.15" rx="11.67" style="fill:#fff;stroke:#263238;stroke-miterlimit:10"></rect><rect x="104.2" y="291.08" width="106.77" height="101.15" rx="11.67" style="fill:#fff;stroke:#263238;stroke-miterlimit:10"></rect><path d="M164.8,335.37s-39.16,10.8-45.91,14.18-12.15,6.07-9.45,8.1,17.56,17.55,29.71,23,32.41,0,52,1.35,29.7-1.35,29.7-3.38-8.1-18.23-20.93-27.68a177.49,177.49,0,0,0-27.68-16.21S166.15,330,164.8,335.37Z" style="fill:#a8a8a8;stroke:#263238;stroke-miterlimit:10"></path><polygon points="107.38 334.69 113.32 379.64 105.37 379.64 107.38 334.69" style="fill:#263238;stroke:#263238;stroke-miterlimit:10"></polygon><rect x="317.73" y="291.08" width="106.77" height="101.15" rx="11.67" style="fill:#fff;stroke:#263238;stroke-miterlimit:10"></rect><path d="M422.55,331S405,328,396,326s-26.06-3-26.06-3-3.51,1-3,3a34.2,34.2,0,0,1,.5,6s-4.51,16-9,26.07-8,17-8,17-6.51,2.5-2.5,4.51,14.53,2,14.53,2h63.15l1-43.6Z" style="fill:#a8a8a8;stroke:#263238;stroke-miterlimit:10"></path><polygon points="101.79 455.81 427.59 455.81 427.59 389.04 104.76 389.04 101.79 455.81" style="fill:#fff;stroke:#263238;stroke-miterlimit:10"></polygon><path d="M99.75,400.93s82.84-.95,112.91-.95,85.8,1.27,99.6,1.27,110,.61,110,.61l.16-5.63-324.6-2.29Z" style="fill:#263238;stroke:#263238;stroke-miterlimit:10"></path><path d="M98.66,397.81s232.32,2,246.53,2,76.62-1.07,76.62-1.07V380s-161.27,1.86-167.45,1.86-135.31-4-140.25-4.38-15.45,0-15.45,0Z" style="fill:#fff;stroke:#263238;stroke-miterlimit:10"></path><rect x="420.82" y="330.51" width="29.87" height="126.49" rx="7" style="fill:#fff;stroke:#263238;stroke-miterlimit:10"></rect><rect x="77.51" y="330.51" width="29.87" height="126.49" rx="7" style="fill:#fff;stroke:#263238;stroke-miterlimit:10"></rect></g><g id="freepik--Floor--inject-62"><line x1="14" y1="456.83" x2="488.21" y2="456.83" style="fill:none;stroke:#263238;stroke-linecap:round;stroke-linejoin:round"></line></g></svg>