<svg xmlns="http://www.w3.org/2000/svg" viewBox="0 0 500 500"><g id="freepik--musical-notes--inject-62"><path d="M69.78,231.55S92.52,251,152.29,249.74,262.73,216,333.54,231.55,418,258.18,455,247.14" style="fill:none;stroke:#263238;stroke-miterlimit:10"></path><path d="M69.78,243.24s22.74,19.49,82.51,18.19,110.44-33.78,181.25-18.19S418,269.88,455,258.83" style="fill:none;stroke:#263238;stroke-miterlimit:10"></path><path d="M69.78,254.93s22.74,19.49,82.51,18.19,110.44-33.78,181.25-18.19S418,281.57,455,270.52" style="fill:none;stroke:#263238;stroke-miterlimit:10"></path><path d="M352.8,228.36c1.77,4.27,3.46,8.36,5.16,12.44,1.37,3.3,2.61,6.66,4.16,9.87s-1.32,7.22-4.17,7.93a2.54,2.54,0,0,1-3.39-2.6c-.12-2.87,2.12-5.33,5.82-6.23-1.65-4-3.28-7.9-5-12.05-5.1,3.27-10,6.4-14.9,9.63-.33.22-.35,1.32-.14,1.86,1.58,4,3.27,8,4.9,12a5.76,5.76,0,0,1-3.43,7.86,3.57,3.57,0,0,1-3-.22,3.8,3.8,0,0,1-.89-3c.57-2.91,2.53-4.66,5.65-5.28l-8.52-20.41Zm-14.06,16.92L354.25,235l-.94-2.16-15.64,10C338.05,243.73,338.36,244.44,338.74,245.28Z" style="fill:#263238"></path><path d="M205.93,235.19v0l-21.24.74c-1.15,7.34-2.27,14.55-3.41,21.86-3-1.11-5.57-.65-7.57,1.54a3.81,3.81,0,0,0-.84,3.06,3.59,3.59,0,0,0,2.43,1.75,5.76,5.76,0,0,0,7-4.92c.7-4.25,1.34-8.52,2.08-12.76.11-.57.7-1.5,1.09-1.51,5.8-.22,11.61-.31,17.62-.43q-1,6.3-2,12.62c-3-1.11-5.57-.65-7.57,1.54a3.6,3.6,0,0,0-.59,1h0a2.55,2.55,0,0,0,1.54,4c2.8.88,7.33-.92,7.69-4.58.08-.79.18-1.58.29-2.36.59-3.64,1.15-7.29,1.79-10.92.1-.57.69-1.5,1.08-1.51,5.84-.22,11.69-.31,17.74-.43-.7,4.44-1.37,8.65-2,12.89-3.62-1.17-6.82-.24-8.21,2.26a2.55,2.55,0,0,0,1.53,4c2.8.88,7.33-.92,7.7-4.58s1.06-7.06,1.61-10.59l2.1-13.31Zm-20.82,7,.34-2.6,18.5-.38c-.13.78-.25,1.56-.37,2.33Zm38.47-1.3-18.6.65c.11-.78.2-1.48.3-2.24,0-.12,0-.24.05-.36l18.57-.38C223.79,239.42,223.69,240.12,223.58,240.93Z" style="fill:#263238"></path><path d="M415.12,244.45c.17.62.61,1.3.48,1.85-.53,2.39.35,4.34,1.57,6.28a41,41,0,0,1,3,5.25c1.57,3.53.82,6.79-1.88,9.78,3.7-6.22.75-10.36-4.22-14a9.13,9.13,0,0,0-.41,1.15c-1.4,6.38-2.78,12.77-4.18,19.15a6.78,6.78,0,0,1-8.63,5.08c-2.88-.84-3.59-3.54-1.38-5.58,2.52-2.32,5.48-2.66,8.83-1.34q3-13.77,6-27.41Z" style="fill:#263238"></path><path d="M120.18,227.56c.18.62.61,1.29.49,1.84-.54,2.4.35,4.35,1.57,6.29a43.36,43.36,0,0,1,3,5.24c1.56,3.54.82,6.8-1.88,9.79,3.7-6.22.75-10.36-4.22-14a9.13,9.13,0,0,0-.41,1.15c-1.4,6.38-2.78,12.77-4.19,19.15a6.79,6.79,0,0,1-8.63,5.08c-2.87-.85-3.59-3.54-1.37-5.58,2.52-2.32,5.47-2.66,8.83-1.34q3-13.77,6-27.41Z" style="fill:#263238"></path><path d="M383.34,251.11l1.39-6.42a5.56,5.56,0,0,1,.14-1c.12-.55-.31-1.23-.49-1.84l-.8.23c-2,9.11-4,18.22-6,27.41-3.36-1.33-6.31-1-8.83,1.33-2.22,2.05-1.5,4.74,1.37,5.59a6.79,6.79,0,0,0,8.63-5.08c1.41-6.39,2.79-12.78,4.19-19.16A7.52,7.52,0,0,1,383.34,251.11Z" style="fill:#263238"></path><path d="M160.67,251.78l1.39-6.42a8.55,8.55,0,0,1,.14-1c.13-.55-.31-1.23-.48-1.85l-.81.23c-2,9.12-4,18.23-6,27.41-3.35-1.32-6.31-1-8.83,1.34-2.21,2-1.5,4.74,1.38,5.58A6.78,6.78,0,0,0,156.1,272c1.4-6.38,2.78-12.77,4.18-19.15A8.35,8.35,0,0,1,160.67,251.78Z" style="fill:#263238"></path></g></svg>