<svg xmlns="http://www.w3.org/2000/svg" viewBox="0 0 500 500"><g id="freepik--Character--inject-62"><path d="M269.7,143.67a26.77,26.77,0,0,0-17.82,1.68c-9.34,4.35-12.82,12-23.25,17.17s-27.81,13.68-36.5,10.21-10-5.65-9.12-2.61,3.26,7.17,7.17,8.69a27.82,27.82,0,0,0,5.65,1.74s1.95,1.52-5,2.61a40.15,40.15,0,0,1-13-.22s1.31,14.55,20.43,19.12,24.11,2.39,24.11,2.39-9.12,6.73-12,8.69,4.35,5.64,17.82,6.08,26.07-11.08,33.45-11.08,16.3,5.65,24.77,3.48,11.95-13.47,11.3-16.08a51.22,51.22,0,0,0-2.39-6.52s2.82,0,4.78,5,2.6,7.38,3.26,5,3.69-6.09-2.83-17.82-6.73-10.86-9.34-20.64-8.26-13.68-13.69-13.68Z" style="fill:#263238;stroke:#263238;stroke-linecap:round;stroke-linejoin:round"></path><ellipse cx="252.71" cy="176.4" rx="7.05" ry="8.34" transform="translate(-35.4 66.97) rotate(-14.12)" style="fill:#fff;stroke:#263238;stroke-linecap:round;stroke-linejoin:round"></ellipse><path d="M237.59,258.31s-8,11.38-12,38.14,2.46,56.9,5.53,65.2,15.69,48.29,18.46,57.51S253,443.77,253,443.77s-6.15,12.61-8,16-4.61,5.54-2.15,6.15,12-2.15,14.45-4.92,2.47-5.53,4.62-8,6.76-4.62,6.76-6.77-2.76-4.92-4-5.84a17,17,0,0,1-2.46-2.46s4.3-30.45,1.84-40.3-8-20.91-8-23.06-.61-21.53-.61-29.22A170.35,170.35,0,0,1,257,326.59s5.53-16.61,12-24,16.92-10.15,17.53-17.23a133.18,133.18,0,0,0,0-16.6Z" style="fill:#FEE8F2;stroke:#263238;stroke-linecap:round;stroke-linejoin:round"></path><path d="M246.71,296.31A19.43,19.43,0,0,0,248.5,299" style="fill:none;stroke:#263238;stroke-linecap:round;stroke-linejoin:round"></path><path d="M241.22,282a72.77,72.77,0,0,0,4.38,12.24" style="fill:none;stroke:#263238;stroke-linecap:round;stroke-linejoin:round"></path><path d="M262.2,291.83s-25.53,20-36.91,32-23.68,28.29-17.23,33.52S277,379.8,282.8,383.49s9.84,9.84,12.61,14.76,4.62,8,5.23,10.76,4.61-.61,4.61-6.76-.92-17.23-.92-21.22-3.38-4-5.53-3.69a56.12,56.12,0,0,0-6.77,1.84A69.46,69.46,0,0,1,269,367.49c-11.69-8.92-10-8.83-16.61-13.53-9.53-6.77-16.6-7.07-16.6-7.07s32-19.69,41.52-29.22,11.07-24.61,11.07-29.84a38.68,38.68,0,0,0-1.54-10.15" style="fill:#FEE8F2;stroke:#263238;stroke-linecap:round;stroke-linejoin:round"></path><path d="M223.94,347.13a19,19,0,0,0-2.37.71" style="fill:none;stroke:#263238;stroke-linecap:round;stroke-linejoin:round"></path><path d="M235.75,346.89a37.2,37.2,0,0,0-7.7-.33" style="fill:none;stroke:#263238;stroke-linecap:round;stroke-linejoin:round"></path><path d="M298.8,377.34a56.12,56.12,0,0,0-6.77,1.84A69.46,69.46,0,0,1,269,367.49c-1.73-1.32-3.16-2.44-4.38-3.41-.54,2.76-2.14,6.61-6.42,10.85,12.23,3.86,22.44,7.17,24.64,8.56,5.85,3.69,9.84,9.84,12.61,14.76s4.62,8,5.23,10.76,4.61-.61,4.61-6.76-.92-17.23-.92-21.22S301,377,298.8,377.34Z" style="fill:#fff;stroke:#263238;stroke-linecap:round;stroke-linejoin:round"></path><path d="M298.8,377.34a22.76,22.76,0,0,0-2.91.67c1.25,2.7,3.6,8.47,3.83,14.09.2,5-1.67,7.38-3,8.45,2,3.62,3.42,6.16,3.93,8.46.62,2.77,4.61-.61,4.61-6.76s-.92-17.23-.92-21.22S301,377,298.8,377.34Z" style="fill:#263238;stroke:#263238;stroke-linecap:round;stroke-linejoin:round"></path><path d="M264.66,440.39a17,17,0,0,1-2.46-2.46s2.52-17.9,2.6-30.69a36.38,36.38,0,0,1-16.88,6.5c.71,2.28,1.28,4.15,1.67,5.42,2.76,9.23,3.38,24.61,3.38,24.61s-6.15,12.61-8,16-4.61,5.54-2.15,6.15,12-2.15,14.45-4.92,2.47-5.53,4.62-8,6.76-4.62,6.76-6.77S265.89,441.31,264.66,440.39Z" style="fill:#fff;stroke:#263238;stroke-linecap:round;stroke-linejoin:round"></path><path d="M264.66,440.39l-.2-.16c-.31.53-.65,1.09-1,1.69-3.39,5.23-6.46,12-10.15,14.77a7.34,7.34,0,0,1-7.22,1c-.43.85-.81,1.57-1.09,2.08-1.84,3.39-4.61,5.54-2.15,6.15s12-2.15,14.45-4.92,2.47-5.53,4.62-8,6.76-4.62,6.76-6.77S265.89,441.31,264.66,440.39Z" style="fill:#263238;stroke:#263238;stroke-linecap:round;stroke-linejoin:round"></path><path d="M255.57,186.63S241.67,181,241,180.55s-15.42-14.34-15.42-14.34l25-33.89s8.26-.44,11.3-1.52,5.87-1.52,6.3-2.39,3.26-5.22,4.56-7-1.3-2.83-2-2-1.09,1.52-1.09,1.52-4.13-5-5.43-5-4.13,4.12-4.13,4.12-9.77,1.74-10.86,3.7-39.1,40.62-39.76,44.32,16.08,20.2,25,26.72,17.38,14.34,17.38,14.34-3.7,10.21-3.7,14.77.66,10.21.22,11.95-13.25,23.46-13.25,23.46,9.34,8,28.68,11.51,25.41.87,25.41.87.87-14.55,1.52-18.25,9.78-23.68,9.78-23.68l2.39,25.86s5.43,3.26,8.26,5.21,9.12,5.87,9.12,5.87-3.91-35-5.43-44.32-1.3-11.73-5.65-15.43-20.2-7.38-20.2-7.38Z" style="fill:#fff;stroke:#263238;stroke-linecap:round;stroke-linejoin:round"></path><path d="M250.56,128.32a8.08,8.08,0,0,1,4.88-3c3.05-.46,11.44.61,11.44.61a31.66,31.66,0,0,1,2.81-4.86" style="fill:none;stroke:#263238;stroke-linecap:round;stroke-linejoin:round"></path><path d="M265.2,116.73s-3.05,3-3.2,4.57" style="fill:none;stroke:#263238;stroke-linecap:round;stroke-linejoin:round"></path><path d="M267,118.25a15.62,15.62,0,0,0-3.51,4.73" style="fill:none;stroke:#263238;stroke-linecap:round;stroke-linejoin:round"></path><path d="M269.17,120.39s-4.58,2.9-4.43,4.27l-4.61-4.51" style="fill:none;stroke:#263238;stroke-linecap:round;stroke-linejoin:round"></path><path d="M309.23,207.05c-4.34-3.69-20.2-7.38-20.2-7.38l-33.46-13s-3.24-1.31-6.66-2.72l1.1,23.63,1.87,1.69s-3.7,10.21-3.7,14.77.66,10.21.22,11.95-13.25,23.46-13.25,23.46,9.34,8,28.68,11.51,25.41.87,25.41.87.87-14.55,1.52-18.25,9.78-23.68,9.78-23.68l.41,4.39,13.66-13.5C313.37,212.82,313.3,210.51,309.23,207.05Z" style="fill:#fff;stroke:#263238;stroke-linecap:round;stroke-linejoin:round"></path><line x1="251.88" y1="209.23" x2="255.6" y2="196.65" style="fill:none;stroke:#263238;stroke-linecap:round;stroke-linejoin:round"></line><line x1="252.6" y1="207.21" x2="252.6" y2="195.77" style="fill:none;stroke:#263238;stroke-linecap:round;stroke-linejoin:round"></line><polyline points="297.85 222.7 300.54 229.87 296.79 225.16" style="fill:#fff;stroke:#263238;stroke-linecap:round;stroke-linejoin:round"></polyline><line x1="275.48" y1="245.02" x2="277.6" y2="246.29" style="fill:none;stroke:#263238;stroke-linecap:round;stroke-linejoin:round"></line><line x1="256.65" y1="233.79" x2="274.01" y2="244.15" style="fill:none;stroke:#263238;stroke-linecap:round;stroke-linejoin:round"></line><line x1="256.83" y1="236.61" x2="267.04" y2="242.59" style="fill:none;stroke:#263238;stroke-linecap:round;stroke-linejoin:round"></line><path d="M264.7,153.3s-4.83.85-11.09,7.11-6.82,8.81-5.68,10.23,2.56,9.67,6.25,15.64S265.56,196,265.56,196a15.13,15.13,0,0,0,11.09,8.82,14,14,0,0,0,12.79-4s-4.55-7.4-5.68-13.94-1.71-18.2-1.71-18.2L280.63,161S269.25,161.26,264.7,153.3Z" style="fill:#fff;stroke:#263238;stroke-linecap:round;stroke-linejoin:round"></path><path d="M269.38,201.22c5.22-5.52,9-18.08,9-18.08C273.44,193.29,265.56,196,265.56,196A15.5,15.5,0,0,0,269.38,201.22Z" style="fill:#263238;stroke:#263238;stroke-linecap:round;stroke-linejoin:round"></path><polyline points="257.03 167.8 259.3 179.46 262.43 178.6" style="fill:none;stroke:#263238;stroke-linecap:round;stroke-linejoin:round"></polyline><path d="M261.58,184.29s8.25,0,8.25-7.73" style="fill:none;stroke:#263238;stroke-linecap:round;stroke-linejoin:round"></path><line x1="268.53" y1="176.25" x2="271.69" y2="176.25" style="fill:none;stroke:#263238;stroke-linecap:round;stroke-linejoin:round"></line><path d="M263.78,170.21a7,7,0,0,0,5.61-1.44" style="fill:none;stroke:#263238;stroke-linecap:round;stroke-linejoin:round"></path><path d="M252,174.82s2.15.71,4.31-2.16" style="fill:none;stroke:#263238;stroke-linecap:round;stroke-linejoin:round"></path><path d="M261.77,164.6s1.72-2.59,5.9-.86" style="fill:none;stroke:#263238;stroke-linecap:round;stroke-linejoin:round"></path><path d="M255.29,167.34s-2.73-.44-4.45,3.3" style="fill:none;stroke:#263238;stroke-linecap:round;stroke-linejoin:round"></path><path d="M281.91,160.4A32,32,0,0,0,276.05,150a78.79,78.79,0,0,0-6.35-6.35s6.11,2,9.4,5.25,5.13,10.87,5.13,10.87Z" style="fill:#fff;stroke:#263238;stroke-linecap:round;stroke-linejoin:round"></path><path d="M281.64,174s1.37,12.71-2.75,24.73S264.81,221,263.44,223.09s-20.61,42.25-7.22,42.59S281,247.48,281,247.48" style="fill:none;stroke:#263238;stroke-linecap:round;stroke-linejoin:round"></path><path d="M258.63,191.5s-.35,23.69,4.81,31.59" style="fill:none;stroke:#263238;stroke-linecap:round;stroke-linejoin:round"></path><ellipse cx="282.91" cy="166.9" rx="7.05" ry="8.34" transform="translate(-32.17 74.06) rotate(-14.12)" style="fill:#fff;stroke:#263238;stroke-linecap:round;stroke-linejoin:round"></ellipse><polygon points="299.08 224.57 280.64 246.19 282.17 247.97 300.86 225.72 299.08 224.57" style="fill:#263238;stroke:#263238;stroke-linecap:round;stroke-linejoin:round"></polygon><path d="M321.07,264.37c-.63-1.52-1.77-4.55-1.77-4.55S296.22,247.76,296,247s-1.54-2.56-.77-4.36,2.31-9.74,2.31-9.74-5.13-4.87-5.9-5.13-2.05,2.31-2.05,2.31-.41.46-.87,1.07c-1.26.92-4.25,3.17-4.25,3.9,0,.92,1.22.51,1.93.41a17,17,0,0,0,2.23-.64,5.08,5.08,0,0,1,2.16,1.45l.85,1s-3.58-1.87-5.49-1.49a1.8,1.8,0,0,0-1.53,2.16l.26.77s-3.18,1.78-3.18,2.92,2-.13,3.43-.25,2-.13,2-.13-1.15,6.36,1.14,8.52a9.62,9.62,0,0,0,4.32,2.54s13.74,15.39,17.42,18.82,8.52,5.85,10.05,3.69S321.71,265.9,321.07,264.37Z" style="fill:#fff;stroke:#263238;stroke-linecap:round;stroke-linejoin:round"></path><path d="M284.84,238.69a6.14,6.14,0,0,1,2-.51,3.69,3.69,0,0,1,3.44,3.3" style="fill:none;stroke:#263238;stroke-linecap:round;stroke-linejoin:round"></path><path d="M289.32,231s4.8,1.62,5.31,3.15a11.12,11.12,0,0,1,.38,3.56" style="fill:none;stroke:#263238;stroke-linecap:round;stroke-linejoin:round"></path><path d="M291.6,237.25a4.56,4.56,0,0,1,.74,2.71" style="fill:none;stroke:#263238;stroke-linecap:round;stroke-linejoin:round"></path></g></svg>